<svg height='100px' width='100px'  fill="#4D4D4D" xmlns="http://www.w3.org/2000/svg" xmlns:xlink="http://www.w3.org/1999/xlink" version="1.1" x="0px" y="0px" viewBox="0 0 16 16" style="enable-background:new 0 0 16 16;" xml:space="preserve"><g><path d="M8.5,9C10.981,9,13,6.981,13,4.5S10.981,0,8.5,0S4,2.019,4,4.5S6.019,9,8.5,9z M8.5,3C9.327,3,10,3.673,10,4.5   S9.327,6,8.5,6S7,5.327,7,4.5S7.673,3,8.5,3z"></path><path d="M12.153,8.601C11.166,9.503,9.868,10,8.5,10S5.834,9.503,4.847,8.601C4.663,8.433,4.383,8.427,4.192,8.584   C4,8.743,3.953,9.019,4.083,9.23l3.99,6.53C8.164,15.909,8.326,16,8.5,16s0.336-0.091,0.427-0.239l3.99-6.53   c0.13-0.212,0.083-0.488-0.108-0.646C12.615,8.427,12.336,8.434,12.153,8.601z"></path></g></svg>