<svg height='100px' width='100px'  fill="#E60000" xmlns="http://www.w3.org/2000/svg" xmlns:xlink="http://www.w3.org/1999/xlink" version="1.1" x="0px" y="0px" viewBox="0 0 64 64" style="enable-background:new 0 0 64 64;" xml:space="preserve"><path d="M47.9,3.1c0-0.1,0-0.1-0.1-0.2c0,0,0-0.1-0.1-0.1c0-0.1-0.1-0.1-0.1-0.2c0,0,0-0.1-0.1-0.1c-0.1-0.1-0.1-0.1-0.2-0.2  c0,0,0,0-0.1-0.1c-0.1-0.1-0.2-0.1-0.3-0.2c-0.1,0-0.2-0.1-0.3-0.1c0,0,0,0-0.1,0c-0.1,0-0.2,0-0.3,0c0,0-0.1,0-0.1,0  c-0.1,0-0.2,0-0.2,0.1c0,0-0.1,0-0.1,0c-0.1,0-0.2,0.1-0.2,0.1c0,0,0,0,0,0c0,0,0,0,0,0c0,0,0,0,0,0c-1.3,0.8-23,14.6-27.4,25.5  c-2.2,5.5-2.7,11.3-1.3,16.3c1.2,4.7,3.9,8.2,7.5,10.1c-0.8,1.8-2.2,3.2-4,4c-1.9,0.8-4,0.8-5.9,0.1c-0.8-0.3-1.6,0.1-2,0.8  c-0.3,0.8,0.1,1.6,0.8,2c1.3,0.5,2.7,0.8,4,0.8c1.4,0,2.8-0.3,4.2-0.9c2.6-1.1,4.5-3.1,5.6-5.6c1.2,0.3,2.4,0.5,3.6,0.5  c7.5,0,15.4-6,19.2-15.3C54.4,29.6,48.2,4.3,47.9,3.1C48,3.2,48,3.2,47.9,3.1z M47.3,39.2L33,41l4.9-12.1l10.6-1.3  C48.7,32,48.4,36.2,47.3,39.2z M36.4,24.5l-5.8-7.2c4.4-4,9.4-7.5,12.7-9.9L36.4,24.5z M39.2,25.7l6.9-17.1c0.8,4,1.9,10,2.3,15.9  L39.2,25.7z M28.4,19.4l6.8,8.3l-4.9,12.1l-9.1-11.1C22.4,25.8,25.2,22.5,28.4,19.4z M19.9,43.4c-0.9-3.5-0.8-7.4,0.2-11.3L29,43  l-3.4,8.5C22.8,49.9,20.8,47.1,19.9,43.4z M28.3,52.7l3.4-8.5l14.1-1.8C41.7,49.9,34.5,54.2,28.3,52.7z"></path></svg>